<?xml version="1.0" encoding="UTF-8" standalone="no"?>
<!-- Svg Vector Icons : http://www.onlinewebfonts.com/icon -->

<svg
   xmlns:dc="http://purl.org/dc/elements/1.1/"
   xmlns:cc="http://creativecommons.org/ns#"
   xmlns:rdf="http://www.w3.org/1999/02/22-rdf-syntax-ns#"
   xmlns:svg="http://www.w3.org/2000/svg"
   xmlns="http://www.w3.org/2000/svg"
   xmlns:sodipodi="http://sodipodi.sourceforge.net/DTD/sodipodi-0.dtd"
   xmlns:inkscape="http://www.inkscape.org/namespaces/inkscape"
   version="1.1"
   x="0px"
   y="0px"
   viewBox="0 0 872.88135 754.2373"
   enable-background="new 0 0 1000 1000"
   xml:space="preserve"
   id="svg2"
   inkscape:version="0.91 r13725"
   sodipodi:docname="butterfly.svg"
   width="872.88135"
   height="754.2373"><defs
   id="defs44" /><sodipodi:namedview
   pagecolor="#1b1b1b"
   bordercolor="#1b1b1b"
   borderopacity="1"
   objecttolerance="10"
   gridtolerance="10"
   guidetolerance="10"
   inkscape:pageopacity="0"
   inkscape:pageshadow="2"
   inkscape:window-width="1920"
   inkscape:window-height="1017"
   id="namedview42"
   showgrid="false"
   inkscape:zoom="0.3337544"
   inkscape:cx="411.1314"
   inkscape:cy="286.66101"
   inkscape:window-x="-8"
   inkscape:window-y="-8"
   inkscape:window-maximized="1"
   inkscape:current-layer="svg2"
   fit-margin-top="0"
   fit-margin-left="0"
   fit-margin-right="0"
   fit-margin-bottom="0" />
<metadata
   id="metadata4"> Svg Vector Icons : http://www.onlinewebfonts.com/icon <rdf:RDF><cc:Work
     rdf:about=""><dc:format>image/svg+xml</dc:format><dc:type
       rdf:resource="http://purl.org/dc/dcmitype/StillImage" /><dc:title></dc:title></cc:Work></rdf:RDF></metadata>
<rect
   style="fill:#929292;fill-opacity:1;stroke:none;stroke-width:5;stroke-miterlimit:4;stroke-dasharray:none;stroke-dashoffset:0;stroke-opacity:1"
   id="rect4172"
   width="872.88135"
   height="754.2373"
   x="0"
   y="0"
   ry="80.508476"
   inkscape:export-xdpi="61.860001"
   inkscape:export-ydpi="61.860001" /><rect
   ry="76.512268"
   y="18.719086"
   x="21.663647"
   height="716.79913"
   width="829.55408"
   id="rect4174"
   style="fill:#000000;fill-opacity:1;stroke:none;stroke-width:5;stroke-miterlimit:4;stroke-dasharray:none;stroke-dashoffset:0;stroke-opacity:1"
   inkscape:export-xdpi="61.860001"
   inkscape:export-ydpi="61.860001" /><g
   id="g6"
   transform="matrix(0.6171365,0,0,0.6171365,137.30321,52.702124)"
   style="fill:#878787;fill-opacity:1"
   inkscape:export-xdpi="61.860001"
   inkscape:export-ydpi="61.860001"><g
     id="g8"
     style="fill:#878787;fill-opacity:1"><path
       d="m 802.4,710.9 c 0,0 50.6,-57.9 2.1,-79 25.5,-39.1 39.9,-86 -23.7,-110.5 C 784,438.3 682.4,446.7 657.6,470.9 759.3,368.7 629,246.3 548.8,120.5 468.6,-5.2 465.5,18 412.8,154.9 c -85.6,111 -31.6,362.6 -16.1,425.9 -12.7,-3.8 -24.3,-5.1 -24.3,-5.1 -4.1,-15.3 -17.9,-26.6 -34.4,-26.6 -8.6,0 -16.4,3.2 -22.6,8.3 C 238.2,509.9 57,454.7 28.6,477.4 16.3,487.2 10,498 10,509.3 c 0,2.6 0.4,5.1 1.1,7.7 -0.7,2.7 -1.1,5.3 -1.1,8 0,12.5 7.9,25.4 22.8,37.3 19.3,16.1 33.8,9.3 39.2,5.5 9.8,-6.8 15.2,-19.8 11.9,-29 -0.2,-0.5 -0.5,-0.9 -0.7,-1.5 1.8,-4.9 2.3,-9.9 0.7,-14.2 -5.6,-16 -23.8,-25.2 -35.8,-22.3 -7.9,1.9 -11.1,11.1 -9.5,18.6 0.3,1.4 0.9,2.7 1.5,3.8 -1.8,3.6 -2.3,8 -1.5,11.9 1.5,7.5 7.5,11.7 14.7,10.4 L 52,538.4 c -4.2,0.7 -5.8,-2.2 -6.3,-4.7 -0.3,-1.6 -0.2,-3.3 0.1,-4.9 2.2,1 4.7,1.5 7.4,1 L 52,523.5 c 7.7,-0.4 18,5.1 23,13.9 -1.6,3.3 -4,6.6 -7.3,8.9 -8.5,5.9 -19.4,4.1 -30.4,-5.2 -9.8,-7.7 -16.1,-15.8 -18.8,-23.6 2.2,-6.4 7,-12.6 14.5,-18.6 23.5,-18.8 188.1,28.4 270.8,76 -0.9,3.3 -1.6,6.7 -1.6,10.2 0,19.8 16,35.7 35.7,35.7 11.9,0 22.3,-5.8 28.8,-14.7 l 0,0.1 c 0,0 80.8,99.5 135.9,107.4 64.8,20.5 41.4,242.9 73.3,248.4 29.6,5.1 67,-104.6 -31,-248.2 103.1,56.3 249,118.2 260.4,104.7 15.6,-18.3 22.3,-35.6 1.8,-55.8 C 893.8,753.5 927,912 969.2,864.6 1063.9,737.2 802.4,710.9 802.4,710.9 Z M 48.2,516.6 c -0.9,0.2 -1.7,0.5 -2.4,0.9 -0.7,-4 0.9,-8.8 4.1,-9.6 8.8,-2.1 23.1,5.7 27.3,17.6 0.3,0.7 0.1,1.6 0.2,2.3 C 69.2,519 57,514.5 48.2,516.6 Z m -15.4,30 c 19.3,16.1 33.8,9.3 39.2,5.6 1.9,-1.3 3.6,-3 5.1,-4.6 -0.9,5.1 -4.1,10.9 -9.3,14.4 -8.5,5.9 -19.4,4.1 -30.4,-5.2 -10.4,-8.3 -16.8,-16.8 -19.1,-25 3.7,5 8.5,10 14.5,14.8 z M 306.7,568 C 225.3,521.7 56,471.2 28.6,493 c -4.2,3.4 -7.7,6.9 -10.5,10.5 1.8,-7 6.7,-13.9 15,-20.5 24.1,-19.3 196.8,30.9 277.1,79.7 -1.3,1.7 -2.4,3.4 -3.5,5.3 z"
       id="path10"
       inkscape:connector-curvature="0"
       style="fill:#878787;fill-opacity:1" /></g><g
     id="g12"
     style="fill:#878787;fill-opacity:1" /><g
     id="g14"
     style="fill:#878787;fill-opacity:1" /><g
     id="g16"
     style="fill:#878787;fill-opacity:1" /><g
     id="g18"
     style="fill:#878787;fill-opacity:1" /><g
     id="g20"
     style="fill:#878787;fill-opacity:1" /><g
     id="g22"
     style="fill:#878787;fill-opacity:1" /><g
     id="g24"
     style="fill:#878787;fill-opacity:1" /><g
     id="g26"
     style="fill:#878787;fill-opacity:1" /><g
     id="g28"
     style="fill:#878787;fill-opacity:1" /><g
     id="g30"
     style="fill:#878787;fill-opacity:1" /><g
     id="g32"
     style="fill:#878787;fill-opacity:1" /><g
     id="g34"
     style="fill:#878787;fill-opacity:1" /><g
     id="g36"
     style="fill:#878787;fill-opacity:1" /><g
     id="g38"
     style="fill:#878787;fill-opacity:1" /><g
     id="g40"
     style="fill:#878787;fill-opacity:1" /></g>
<circle
   style="fill:#59ff5b;fill-opacity:1;stroke:none;stroke-width:7.4000001;stroke-miterlimit:4;stroke-dasharray:none;stroke-dashoffset:0;stroke-opacity:1"
   id="path4180"
   cx="1276.8135"
   cy="834.4447"
   r="125.84104" /><text
   xml:space="preserve"
   style="font-style:normal;font-weight:normal;font-size:241.27583313px;line-height:125%;font-family:sans-serif;letter-spacing:0px;word-spacing:0px;fill:#006301;fill-opacity:1;stroke:none;stroke-width:1px;stroke-linecap:butt;stroke-linejoin:miter;stroke-opacity:1"
   x="1210.6587"
   y="922.00073"
   id="text4176"
   sodipodi:linespacing="125%"><tspan
     sodipodi:role="line"
     id="tspan4178"
     x="1210.6587"
     y="922.00073">?</tspan></text>
<circle
   r="125.84104"
   cy="816.46741"
   cx="1660.329"
   id="circle4182"
   style="fill:#ff6363;fill-opacity:1;stroke:none;stroke-width:7.4000001;stroke-miterlimit:4;stroke-dasharray:none;stroke-dashoffset:0;stroke-opacity:1" /><text
   sodipodi:linespacing="125%"
   id="text4184"
   y="904.02344"
   x="1594.1742"
   style="font-style:normal;font-weight:normal;font-size:241.27583313px;line-height:125%;font-family:sans-serif;letter-spacing:0px;word-spacing:0px;fill:#b60000;fill-opacity:1;stroke:none;stroke-width:1px;stroke-linecap:butt;stroke-linejoin:miter;stroke-opacity:1"
   xml:space="preserve"><tspan
     y="904.02344"
     x="1594.1742"
     id="tspan4186"
     sodipodi:role="line">?</tspan></text>
</svg>